<svg xmlns="http://www.w3.org/2000/svg" viewBox="0 0 800 600" fill="none">
  <defs>
    <linearGradient id="bg" x1="0" y1="0" x2="800" y2="600" gradientUnits="userSpaceOnUse">
      <stop stop-color="#08160d"/><stop offset="1" stop-color="#050b07"/>
    </linearGradient>
    <radialGradient id="glow" cx="0.5" cy="0.42" r="0.55">
      <stop stop-color="#16a34a" stop-opacity="0.4"/><stop offset="1" stop-color="#16a34a" stop-opacity="0"/>
    </radialGradient>
    <linearGradient id="gb" x1="0" y1="0" x2="1" y2="0">
      <stop stop-color="#4ade80"/><stop offset="1" stop-color="#16a34a"/>
    </linearGradient>
  </defs>
  <rect width="800" height="600" fill="url(#bg)"/>
  <g stroke="#ffffff" stroke-opacity="0.05">
    <path d="M0 150H800M0 300H800M0 450H800M200 0V600M400 0V600M600 0V600"/>
  </g>
  <ellipse cx="400" cy="255" rx="330" ry="240" fill="url(#glow)"/>
  <g transform="translate(300,150)">
    <rect x="0" y="6" width="120" height="30" rx="15" fill="url(#gb)"/>
    <rect x="50" y="52" width="150" height="30" rx="15" fill="url(#gb)"/>
    <rect x="30" y="98" width="100" height="30" rx="15" fill="url(#gb)"/>
    <rect x="90" y="144" width="110" height="30" rx="15" fill="url(#gb)"/>
  </g>
  <text x="400" y="410" text-anchor="middle" font-family="'Segoe UI',Arial,sans-serif" font-size="58" font-weight="700" fill="#ffffff">Project</text>
  <text x="400" y="452" text-anchor="middle" font-family="'Segoe UI',Arial,sans-serif" font-size="25" font-weight="500" fill="#86efac">Genuine License Key</text>
  <g transform="translate(300,498)">
    <rect width="200" height="40" rx="20" fill="#16a34a" fill-opacity="0.16" stroke="#4ade80" stroke-opacity="0.5"/>
    <text x="100" y="26" text-anchor="middle" font-family="Arial,sans-serif" font-size="16" font-weight="700" fill="#86efac" letter-spacing="2">PROJECT PLANNING</text>
  </g>
</svg>
